<?xml version="1.0" standalone="no"?>
<!DOCTYPE svg PUBLIC "-//W3C//DTD SVG 20010904//EN"
 "http://www.w3.org/TR/2001/REC-SVG-20010904/DTD/svg10.dtd">
<svg version="1.0" xmlns="http://www.w3.org/2000/svg"
 width="180.000000pt" height="180.000000pt" viewBox="0 0 180.000000 180.000000"
 preserveAspectRatio="xMidYMid meet">
<metadata>
Created by potrace 1.14, written by Peter Selinger 2001-2017
</metadata>
<g transform="translate(0.000000,180.000000) scale(0.100000,-0.100000)"
fill="#000000" stroke="none">
<path d="M770 1726 c-69 -40 -201 -117 -295 -171 -93 -54 -208 -120 -254 -146
-46 -27 -88 -49 -93 -49 -4 0 -7 -204 -6 -457 l3 -456 388 -224 387 -224 268
155 c147 85 321 186 387 224 l120 70 0 453 0 452 -385 223 c-212 123 -387 223
-390 223 -3 0 -61 -33 -130 -73z m353 -134 c122 -71 242 -140 267 -154 25 -14
84 -48 133 -77 l87 -52 0 -409 0 -409 -117 -69 c-101 -59 -168 -97 -256 -147
-9 -5 -89 -52 -177 -102 l-160 -93 -353 204 -352 203 0 413 0 413 350 203
c193 112 351 203 353 204 2 0 103 -58 225 -128z"/>
<path d="M1090 1383 c-44 -17 -128 -86 -188 -155 -40 -47 -40 -47 -64 -29 -39
30 -142 88 -179 100 -71 23 -113 24 -141 1 -36 -28 -43 -68 -23 -136 14 -50
18 -55 31 -42 13 12 13 19 0 49 -29 71 -1 122 64 113 40 -5 181 -73 224 -107
l29 -23 -32 -45 c-27 -37 -45 -49 -114 -76 -48 -20 -85 -29 -90 -24 -13 13
-37 2 -31 -14 3 -8 -19 -26 -58 -48 -127 -71 -184 -157 -141 -215 24 -33 100
-61 166 -62 l48 0 -7 -57 c-21 -158 12 -217 110 -199 41 8 67 33 43 42 -9 3
-24 1 -36 -5 -46 -25 -86 0 -92 59 -3 32 10 132 19 146 4 6 56 16 116 23 l109
12 28 -27 28 -27 -41 -49 c-24 -29 -37 -53 -32 -58 11 -11 20 -5 65 46 l37 41
43 -30 c138 -94 264 -126 311 -79 42 42 22 150 -49 264 -13 21 -23 40 -23 42
0 3 26 19 59 36 69 37 148 111 157 147 9 35 -6 72 -39 96 -22 17 -30 18 -40 8
-10 -10 -9 -14 5 -22 30 -17 48 -40 48 -60 0 -28 -85 -108 -155 -146 l-59 -31
-33 44 -34 44 33 83 c18 45 33 82 33 83 0 1 12 4 28 8 20 5 27 3 27 -8 0 -38
70 -43 89 -7 25 46 -53 97 -80 53 -8 -12 -19 -17 -31 -14 -17 4 -18 11 -12 61
4 31 8 65 9 76 3 35 -16 89 -37 108 -20 16 -67 21 -98 10z m85 -47 c22 -34 22
-106 -1 -187 -3 -12 -22 -18 -72 -23 -37 -3 -87 -9 -112 -12 -40 -5 -48 -2
-73 24 l-28 29 73 75 c108 111 181 143 213 94z m-279 -220 c18 -14 18 -15 -9
-25 -49 -19 -60 -15 -41 14 19 29 23 30 50 11z m255 -44 c-5 -15 -17 -47 -27
-70 l-19 -43 -59 60 -58 59 53 10 c30 5 68 10 86 11 30 1 31 0 24 -27z m-133
-73 c79 -78 77 -68 22 -167 -33 -58 -39 -64 -85 -77 -109 -29 -98 -32 -175 47
l-69 72 41 78 c42 78 43 79 98 94 30 9 60 17 65 19 25 9 37 1 103 -66z m-294
-31 c-16 -29 -30 -55 -32 -58 -4 -6 -52 48 -52 58 0 5 73 40 108 51 2 1 -9
-23 -24 -51z m-86 -184 l-33 -86 -65 6 c-83 6 -124 21 -140 50 -24 45 34 112
152 176 l51 28 34 -44 34 -44 -33 -86z m522 46 c0 -6 -87 -40 -102 -40 -4 0 7
24 25 54 l32 54 22 -31 c13 -17 23 -34 23 -37z m-354 -107 c-5 -5 -33 -10
-103 -18 l-62 -6 8 28 c5 15 17 47 26 71 l18 44 58 -58 c32 -32 57 -59 55 -61z
m433 -16 c44 -86 58 -154 35 -177 -16 -16 -56 -18 -101 -4 -52 16 -146 65
-186 98 l-29 23 33 47 c26 36 44 50 88 66 31 11 65 24 76 29 11 5 25 8 30 7 6
-1 30 -41 54 -89z m-285 -12 c-19 -29 -22 -29 -46 -11 -25 18 -23 24 10 29 54
8 53 8 36 -18z"/>
<path d="M875 970 c-49 -19 -64 -86 -27 -122 26 -26 78 -26 104 0 54 53 -8
150 -77 122z"/>
<path d="M524 1106 c-20 -15 -22 -65 -3 -77 20 -12 53 -11 67 3 39 39 -19 107
-64 74z"/>
<path d="M753 514 c-12 -19 -14 -30 -7 -42 31 -48 94 -36 94 17 0 52 -58 69
-87 25z"/>
</g>
</svg>
